<?xml version="1.0" ?><svg height="192" viewBox="0 0 192 192" width="192" xmlns="http://www.w3.org/2000/svg"><title/><g data-name="Layer 4" id="Layer_4"><rect height="2" style="fill: #4f4f4f" width="170" y="160.00772"/><path d="M62,186.50772H39a9,9,0,0,1,0-18H141.5v2H39a7,7,0,0,0,0,14H62Z" style="fill: #dededd"/><path d="M23,59.00772v29H74v-8l13,17-13,17v-8H23v31H43.28516a18.96618,18.96618,0,0,1,29.42968,0H122v-78Z" style="fill: #ffd15d"/><g><rect height="6" style="fill: #4f4f4f" width="2" x="2" y="132.00772"/><rect height="2" style="fill: #4f4f4f" width="6" y="134.00772"/></g><g><rect height="6" style="fill: #4f4f4f" width="2" x="79.86768" y="44.29459"/><rect height="2" style="fill: #4f4f4f" width="6" x="77.86768" y="46.29459"/></g><g><path d="M178.2793,93.85343v-2a4.00459,4.00459,0,0,0,4-4h2A6.00672,6.00672,0,0,1,178.2793,93.85343Z" style="fill: #4f4f4f"/><path d="M188.2793,93.85343a6.00671,6.00671,0,0,1-6-6h2a4.00458,4.00458,0,0,0,4,4Z" style="fill: #4f4f4f"/><path d="M184.2793,97.85343h-2a4.00458,4.00458,0,0,0-4-4v-2A6.00672,6.00672,0,0,1,184.2793,97.85343Z" style="fill: #4f4f4f"/><path d="M184.2793,97.85343h-2a6.00671,6.00671,0,0,1,6-6v2A4.00458,4.00458,0,0,0,184.2793,97.85343Z" style="fill: #4f4f4f"/></g><g><rect height="77.53763" style="fill: #dededd" width="2" x="21" y="58.9701"/><path d="M24,142.50772a7,7,0,0,1-7-7V120.9701h7Z" style="fill: #f58e70"/><rect height="24" style="fill: #dededd" width="4" x="125" y="92.4701"/><polygon points="152.083 104.303 152.083 116.553 161 116.553 152.083 104.303" style="fill: #dededd"/><g><path d="M58,132.00772a16.99994,16.99994,0,0,0-17,17h5a12,12,0,0,1,24,0h5A16.99994,16.99994,0,0,0,58,132.00772Z" style="fill: #dededd"/><path d="M58,162.00772a13,13,0,1,1,13-13A13.01457,13.01457,0,0,1,58,162.00772Zm0-24a11,11,0,1,0,11,11A11.01245,11.01245,0,0,0,58,138.00772Z" style="fill: #4f4f4f"/><circle cx="58" cy="149.00772" r="8" style="fill: #dededd"/><path d="M58,154.00772a5,5,0,1,1,5-5A5.00573,5.00573,0,0,1,58,154.00772Zm0-8a3,3,0,1,0,3,3A3.00328,3.00328,0,0,0,58,146.00772Z" style="fill: #4f4f4f"/></g><rect height="6" style="fill: #dededd" width="28" x="126" y="143.00772"/><rect height="6" style="fill: #dededd" width="7.16667" x="183.83333" y="143.00772"/><path d="M154,149.00772h-2a17.87784,17.87784,0,0,1,5.29932-12.75488,8.9955,8.9955,0,0,0,2.69775-6.40137L160,116.46988l2,.00049-.00293,13.38159a10.98106,10.98106,0,0,1-3.28662,7.81787A15.893,15.893,0,0,0,154,149.00772Z" style="fill: #dededd"/><path d="M170,132.00772a16.99994,16.99994,0,0,0-17,17h5a12,12,0,0,1,24,0h5A16.99994,16.99994,0,0,0,170,132.00772Z" style="fill: #dededd"/><polygon points="191 137.008 187 137.008 185 129.008 185 127.008 191 127.008 191 137.008" style="fill: #ffd15d"/><path d="M192,150.00772h-9.8335v-2H190v-19.5a2.07874,2.07874,0,0,0-.814-1.67285,41.15247,41.15247,0,0,0-17.20069-7.42016l-11.37988-2.02881L144.30322,95.84879a6.03106,6.03106,0,0,0-4.78369-2.37866H126v54.53759h32v2H124V91.47013h15.51953a8.042,8.042,0,0,1,6.37842,3.17163l15.82959,20.9126,10.6084,1.8916a43.16238,43.16238,0,0,1,18.0415,7.78247A4.08658,4.08658,0,0,1,192,128.50772Z" style="fill: #4f4f4f"/><path d="M126,150.00772H70v-2h54V58.47013a2.00213,2.00213,0,0,0-2-2H18.8335V136.674A5.17265,5.17265,0,0,0,24,141.84073h1v6.167H46v2H23v-6.23657a7.17786,7.17786,0,0,1-6.1665-7.09717V54.47013H122a4.00458,4.00458,0,0,1,4,4Z" style="fill: #4f4f4f"/><rect height="2" style="fill: #4f4f4f" width="36.1665" x="124.8335" y="115.47013"/><path d="M170,162.00772a13,13,0,1,1,13-13A13.01457,13.01457,0,0,1,170,162.00772Zm0-24a11,11,0,1,0,11,11A11.01245,11.01245,0,0,0,170,138.00772Z" style="fill: #4f4f4f"/><circle cx="170" cy="149.00772" r="8" style="fill: #dededd"/><path d="M170,154.00772a5,5,0,1,1,5-5A5.00573,5.00573,0,0,1,170,154.00772Zm0-8a3,3,0,1,0,3,3A3.00328,3.00328,0,0,0,170,146.00772Z" style="fill: #4f4f4f"/><rect height="2" style="fill: #4f4f4f" width="6" x="130" y="120.47013"/><path d="M167,112.97013h-6v-12h2a4.00458,4.00458,0,0,1,4,4Zm-4-2h2v-6a2.00213,2.00213,0,0,0-2-2Z" style="fill: #4f4f4f"/><rect height="2" style="fill: #4f4f4f" width="8.2085" x="153.625" y="105.22013"/><rect height="2" style="fill: #4f4f4f" width="7.8335" x="154" y="110.97013"/><polygon points="25 143.008 23 143.008 23 121.97 18 121.97 18 119.97 25 119.97 25 143.008" style="fill: #4f4f4f"/></g><g><path d="M24.22021,51.53678A14.985,14.985,0,1,1,39.20508,36.55191,15.00182,15.00182,0,0,1,24.22021,51.53678Zm0-27.97a12.985,12.985,0,1,0,12.98487,12.9851A12.99989,12.99989,0,0,0,24.22021,23.56681Z" style="fill: #f58e70"/><polygon points="25.201 45.74 23.201 45.74 23.201 34.74 30.199 34.74 30.199 36.74 25.201 36.74 25.201 45.74" style="fill: #4f4f4f"/></g><g><rect height="2" style="fill: #dededd" width="2" x="94" y="37.50772"/><rect height="2" style="fill: #dededd" width="2" x="94" y="41.50772"/><rect height="2" style="fill: #dededd" width="2" x="94" y="45.50772"/><rect height="2" style="fill: #dededd" width="2" x="98" y="37.50772"/><rect height="2" style="fill: #dededd" width="2" x="98" y="41.50772"/><rect height="2" style="fill: #dededd" width="2" x="98" y="45.50772"/><rect height="2" style="fill: #dededd" width="2" x="102" y="37.50772"/><rect height="2" style="fill: #dededd" width="2" x="102" y="41.50772"/><rect height="2" style="fill: #dededd" width="2" x="102" y="45.50772"/></g><g><rect height="2" style="fill: #dededd" width="2" x="176" y="168.50772"/><rect height="2" style="fill: #dededd" width="2" x="176" y="172.50772"/><rect height="2" style="fill: #dededd" width="2" x="176" y="176.50772"/><rect height="2" style="fill: #dededd" width="2" x="180" y="168.50772"/><rect height="2" style="fill: #dededd" width="2" x="180" y="172.50772"/><rect height="2" style="fill: #dededd" width="2" x="180" y="176.50772"/><rect height="2" style="fill: #dededd" width="2" x="184" y="168.50772"/><rect height="2" style="fill: #dededd" width="2" x="184" y="172.50772"/><rect height="2" style="fill: #dededd" width="2" x="184" y="176.50772"/></g><path d="M141.02222,124.99421a13.12371,13.12371,0,0,0-11.21095,19.77618l1.15894,2.088.01438.0246a100.593,100.593,0,0,1,9.57577,21.06726l.81963,2.55751.77914-2.57014a100.45594,100.45594,0,0,1,9.13726-21.21231l1.24635-2.13176a13.12363,13.12363,0,0,0-11.52052-19.5993Zm.12765,16.1934a2.876,2.876,0,1,1,2.85318-2.89865A2.876,2.876,0,0,1,141.14987,141.18761Z" style="fill: #f58e70"/><path d="M67,191.50772a6,6,0,1,1,6-6A6.00672,6.00672,0,0,1,67,191.50772Zm0-10a4,4,0,1,0,4,4A4.00458,4.00458,0,0,0,67,181.50772Z" style="fill: #4f4f4f"/><g><g><rect height="34" style="fill: #dededd" width="34" x="142.99995" y="57.50778"/><rect height="34" style="fill: #ffd15d" width="34" x="134.9999" y="49.50772"/><polygon points="157.526 58.307 154.726 56.907 151.926 58.307 149.126 56.907 146.326 58.307 146.326 49.907 157.526 49.907 157.526 58.307" style="fill: #fff"/></g><path d="M170,84.50772H134v-36h36Zm-34-2h32v-32H136Z" style="fill: #4f4f4f"/></g><circle cx="80" cy="185.50772" r="4" style="fill: #dededd"/><path d="M123.71676,18.83127a.70159.70159,0,0,0,.57486-1.09678,8.3516,8.3516,0,0,0-6.99608-3.78682q-.28517,0-.56556.01908a1.91166,1.91166,0,0,1-1.69172-.78377,9.10851,9.10851,0,0,0-15.73383,1.70791,4.24667,4.24667,0,0,0-4.86475,3.03438.70461.70461,0,0,0,.66942.906Z" style="fill: #dededd"/><path d="M160,38.91947a4.47624,4.47624,0,0,0-7.3244-3.477,13.98844,13.98844,0,0,0-27.24042-.43072A6.99807,6.99807,0,0,0,113,39.41947H159.9496A4.43107,4.43107,0,0,0,160,38.91947Z" style="fill: #5fe0ed"/><g><path d="M79.58838,41.537H49.11768a1,1,0,1,1,0-2h30.4707a6.5293,6.5293,0,1,0,0-13.05859c-.10449,0-.20752.00781-.31006.01489l-.10986.00757a1.01426,1.01426,0,0,1-1.00733-.66724,7.45708,7.45708,0,0,0-14.41455,3.625,1.00005,1.00005,0,0,1-1.34179,1.08863,4.63551,4.63551,0,0,0-6.28711,4.34277,1,1,0,0,1-2,0,6.65464,6.65464,0,0,1,6.647-6.647,6.5028,6.5028,0,0,1,.88232.06005v-.00122a9.466,9.466,0,0,1,18.12842-3.82153,8.52935,8.52935,0,0,1-.187,17.05664Z" style="fill: #4f4f4f"/><circle cx="46.11762" cy="40.53714" r="1" style="fill: #4f4f4f"/></g><g><circle cx="150.5" cy="43.00772" r="1" style="fill: #4f4f4f"/><path d="M179.51025,47.00675a5.98922,5.98922,0,0,1-4.45947-1.978,3.21857,3.21857,0,0,0-2.397-1.02734H172.646c-3.20069.00805-9.271.00732-14.95313.00659L153.5,44.00772a1,1,0,0,1,0-2l4.19336.00025c5.6792,0,11.74853.00122,14.94775-.00659h.01221a5.21982,5.21982,0,0,1,3.88184,1.687,3.99837,3.99837,0,1,0,4.54785-6.35181,1.00042,1.00042,0,0,1-.602-.9751l.00781-.12377c.00537-.07618.01123-.15235.01123-.23a5.99577,5.99577,0,0,0-11.79492-1.52709,1.00024,1.00024,0,0,1-1.61817.50512,3.936,3.936,0,0,0-2.58691-.978,4.00458,4.00458,0,0,0-4,4,1,1,0,1,1-2,0,6.00673,6.00673,0,0,1,6-6,5.90939,5.90939,0,0,1,2.73.67554,7.99594,7.99594,0,0,1,15.26758,3.1294,5.999,5.999,0,0,1-2.00488,11.115A6.20269,6.20269,0,0,1,179.51025,47.00675Z" style="fill: #4f4f4f"/></g></g></svg>